<svg xmlns="http://www.w3.org/2000/svg" viewBox="0 0 64 64">
  <!-- Calendar42: un calendario con la cabecera azul de los eventos y días
       con los colores de la agenda (evento, examen, slot, corrección). -->
  <rect x="6" y="10" width="52" height="48" rx="10" fill="#1f2430"/>
  <path d="M6 20a10 10 0 0 1 10-10h32a10 10 0 0 1 10 10v8H6z" fill="#4f8cff"/>
  <rect x="17" y="4" width="6" height="12" rx="3" fill="#e6ecf8"/>
  <rect x="41" y="4" width="6" height="12" rx="3" fill="#e6ecf8"/>
  <g fill="#e6ecf8" opacity="0.9">
    <rect x="14" y="34" width="9" height="8" rx="2"/>
    <rect x="27.5" y="34" width="9" height="8" rx="2"/>
    <rect x="41" y="34" width="9" height="8" rx="2"/>
    <rect x="14" y="46" width="9" height="8" rx="2"/>
  </g>
  <rect x="27.5" y="46" width="9" height="8" rx="2" fill="#ff5c5c"/>
  <rect x="41" y="46" width="9" height="8" rx="2" fill="#20bf6b"/>
</svg>
